inDegrees=no
num_controls=7
num_derivatives=13
num_iterations=78
num_multipliers=7
num_parameters=0
num_slacks=7
num_states=26
objective=0.454591
objective_accelerations=0.045395
objective_balance=0.000825
objective_effort=0.036796
objective_height=0.365469
objective_ligament=0.006106
solver_duration=873.586964
status=Solve_Succeeded
success=true
DataType=double
version=3
OpenSimVersion=4.5
endheader
time	/jointset/ground_pelvis/pelvis_tilt/value	/jointset/ground_pelvis/pelvis_tx/value	/jointset/ground_pelvis/pelvis_ty/value	/jointset/hip_r/hip_flexion_r/value	/jointset/hip_r/hip_adduction_r/value	/jointset/hip_r/hip_rotation_r/value	/jointset/back/lumbar_extension/value	/jointset/patellofemoral_r/patellar_flexion_r/value	/jointset/knee_r/knee_flexion_r/value	/jointset/knee_r/knee_adduction_r/value	/jointset/knee_r/knee_rotation_r/value	/jointset/ankle_r/ankle_angle_r/value	/jointset/subtalar_r/subtalar_angle_r/value	/jointset/ground_pelvis/pelvis_tilt/speed	/jointset/ground_pelvis/pelvis_tx/speed	/jointset/ground_pelvis/pelvis_ty/speed	/jointset/hip_r/hip_flexion_r/speed	/jointset/hip_r/hip_adduction_r/speed	/jointset/hip_r/hip_rotation_r/speed	/jointset/back/lumbar_extension/speed	/jointset/patellofemoral_r/patellar_flexion_r/speed	/jointset/knee_r/knee_flexion_r/speed	/jointset/knee_r/knee_adduction_r/speed	/jointset/knee_r/knee_rotation_r/speed	/jointset/ankle_r/ankle_angle_r/speed	/jointset/subtalar_r/subtalar_angle_r/speed	/forceset/tau_hip_flexion_r	/forceset/tau_hip_adduction_r	/forceset/tau_hip_rotation_r	/forceset/tau_knee_flexion_r	/forceset/tau_ankle_angle_r	/forceset/tau_subtalar_angle_r	/forceset/tau_lumbar_extension	lambda_cid13_p0	lambda_cid14_p0	lambda_cid14_p1	lambda_cid14_p2	lambda_cid14_p3	lambda_cid14_p4	lambda_cid14_p5	/jointset/ground_pelvis/pelvis_tilt/accel	/jointset/ground_pelvis/pelvis_tx/accel	/jointset/ground_pelvis/pelvis_ty/accel	/jointset/hip_r/hip_flexion_r/accel	/jointset/hip_r/hip_adduction_r/accel	/jointset/hip_r/hip_rotation_r/accel	/jointset/back/lumbar_extension/accel	/jointset/patellofemoral_r/patellar_flexion_r/accel	/jointset/knee_r/knee_flexion_r/accel	/jointset/knee_r/knee_adduction_r/accel	/jointset/knee_r/knee_rotation_r/accel	/jointset/ankle_r/ankle_angle_r/accel	/jointset/subtalar_r/subtalar_angle_r/accel	gamma_cid13_p0	gamma_cid14_p0	gamma_cid14_p1	gamma_cid14_p2	gamma_cid14_p3	gamma_cid14_p4	gamma_cid14_p5
0.5	-0.1293593679617357	0.03208495912242741	0.8124510882783816	0.8595038881900895	-0.2513599897165776	-0.05581318170308393	-0.6437037508889081	0.9432887574153891	0.9432887574153965	0.06113622083802013	0.1741853713383221	0.2884801604754919	0.09149237725312001	-0.33121307365352	-0.1937525698164759	-0.4706497525599627	1.775907774832911	-0.0411003669758412	0.5077005659252908	-0.7332004061722531	1.894183230440599	1.894183230440593	-0.079203743505929	-0.003220202680058485	0.5259728652601126	0.1071811340344796	-0.1897757926530652	0.004658005037673408	0.03503461840201574	-0.2925346150097085	0.002032501819278751	-0.01479172249284972	0.2353074098413084	-8.563112539470032	-42.63720178066232	-12.64808838581034	1.020382432675398	-4.024355063271404	-643.2020390411409	57.60122991741911	0.2668325563226147	0.5491347610633338	-0.3742684337892312	-1.196640017574752	0.2242059435405321	-0.1646814278482932	1.705120361955013	-1.367893447549813	-1.36789344754981	0.4270781829154717	0.008913234435063923	-0.4675193713598201	0.251899196288752	-5.519762114556005e-08	2.86753932777169e-08	1.293028664364351e-06	2.442921038605483e-08	-1.486724164294263e-07	-1.266508988150046e-07	8.396148374579555e-07
0.51	-0.1326574682227326	0.0301750472301127	0.8077269495513436	0.8772003817913745	-0.2517601080066161	-0.05074663933557806	-0.6509498791972773	0.9621593294125144	0.9621593294125067	0.06036490154096624	0.1741553512948499	0.2937154914060441	0.09257607107203032	-0.3283567690703995	-0.1882151773694015	-0.4740737058446349	1.763152657228827	-0.03891504036330081	0.5055228657613328	-0.7159393089404774	1.879671532933513	1.879671532933508	-0.07511236074017817	-0.002774474471853426	0.5210164834913343	0.1095535010961929	-0.1958611950830186	0.00583327386362635	0.03574462547794333	-0.2972110266655633	0.0008432156512034498	-0.01468376380732683	0.2410069900351895	-7.613487613042473	-43.31455292025558	-12.87150932028272	1.229289111855777	-3.895556681591003	-647.786931247967	57.7013851168005	0.3025669239290877	0.5582030343186639	-0.310841204288395	-1.350684677680262	0.2170333673148471	-0.2571784275608116	1.7494963878414	-1.531742548561009	-1.53174254856097	0.3925262847344611	0.06385605610482033	-0.5212611337511056	0.2295168326204031	-5.030665547452993e-08	3.898476015852665e-08	1.390865997766296e-06	9.818047575944888e-08	-1.657779571416599e-07	-1.213990599377462e-07	9.153432025648212e-07
0.52	-0.1359254979349683	0.02832094157182648	0.8029716948057629	0.8947621768074498	-0.2521381055610882	-0.0457044467930869	-0.6580208181365176	0.9808769975053069	0.9808769975052998	0.05963296766385737	0.1741300792218677	0.2988989458080853	0.09368341083585953	-0.3251989639023998	-0.1825913230107785	-0.4768729562685562	1.748968057790532	-0.03667621986260571	0.5028306009217302	-0.6981625323466014	1.86360244957551	1.863602449575505	-0.0713266595212485	-0.002270608579984628	0.5155975595579881	0.1119103230182191	-0.2019465975129802	0.007008542689596408	0.03645463255375993	-0.3018874383214173	-0.0003460705168628522	-0.01457580512177294	0.2467065702290605	-6.72281736073515	-43.9909327563617	-13.08988304538099	1.431820028037937	-3.792074092809433	-652.3583526220068	57.83265204319855	0.3271326732983294	0.5664271433731013	-0.249327861639026	-1.482536384417158	0.2349047211714382	-0.2675943629772382	1.808256234375013	-1.679370617733281	-1.67937061773328	0.3659418735512761	0.02054077116784386	-0.5600278042733557	0.2487901683513225	-4.323573846826497e-08	4.197427949727434e-08	1.3513431464569e-06	1.374444651126387e-07	-1.658957344961156e-07	-1.092853757902553e-07	9.054218731874175e-07
0.53	-0.1391604865229876	0.02652344945671668	0.7981915925353932	0.9121751253830004	-0.2524934638404533	-0.04069152008379459	-0.6649115103027294	0.9994263599610517	0.9994263599610359	0.05893741785319106	0.1741099062794365	0.304025976101596	0.09481422511810048	-0.3217489265993026	-0.1768976970352992	-0.4790402959906211	1.73338952862147	-0.03439174272007846	0.4996938649811319	-0.6799036300378066	1.846023455790184	1.846023455790179	-0.06781581345401505	-0.001771047491218265	0.5097373326858391	0.114242241045387	-0.20793401296674	0.008115475648613306	0.03712374176899046	-0.306657241869087	-0.001583979476911682	-0.01450695497274264	0.2522920995817179	-5.891850069340571	-44.69306953495914	-13.32921178862586	1.637075360380147	-3.618725548100598	-656.9977633006695	57.94869798345673	0.3614193584630894	0.5722075796249672	-0.1843773397896573	-1.630323957028667	0.2258731288255605	-0.3459365144292191	1.845547857723652	-1.834143722022911	-1.834143722022959	0.3389594382463231	0.06367444933424268	-0.609731562544723	0.2240763088594266	-3.70446351289324e-08	4.403543972842093e-08	1.305601093111571e-06	1.682959236151101e-07	-1.649284802250097e-07	-9.714666647900483e-08	8.90091606059526e-07
0.54	-0.142359478718041	0.0247831690523595	0.7933930288053432	0.9294253261120871	-0.2528258465647875	-0.03571180539486839	-0.6716174453201343	1.01779253648632	1.017792536486307	0.05827603719621055	0.1740945310822025	0.3090922618396125	0.09596809531840522	-0.3179996853103111	-0.1711489808602565	-0.4805652482046202	1.71641848849728	-0.03208110885627277	0.4961881968474159	-0.6612111025853356	1.826965263481235	1.826965263481231	-0.0644928287893089	-0.001311059538323879	0.5034486484593312	0.1165215066309531	-0.2139214284205055	0.009222408607653812	0.03779285098408931	-0.3114270454167568	-0.002821888436949709	-0.01443810482366964	0.2578776289343673	-5.120764406497156	-45.39476092939321	-13.56374019238328	1.836171452945488	-3.470789963746099	-661.6314432189299	58.09399179121389	0.3869734704770692	0.5774451832858249	-0.1208503600258844	-1.761038575442964	0.2401360654270912	-0.3413808016008291	1.894981263110221	-1.975210322457776	-1.975210322457776	0.3283695930458383	0.01262614399347505	-0.6457192751450924	0.2382596800309415	-3.182694265514205e-08	4.506947924477478e-08	1.252978220492443e-06	1.898399011763612e-07	-1.627607654320059e-07	-8.498026975253094e-08	8.687769822715206e-07
0.55	-0.14551954834088	0.02310060397265731	0.7885824316864691	0.9464990261723928	-0.25313500761552	-0.03076899436658994	-0.6781343586241311	1.035960927509652	1.035960927509637	0.05764685324008662	0.1740835059506453	0.3140936175291839	0.0971444883351207	-0.3139659415683582	-0.1653588797142619	-0.4814455083954197	1.698096769165444	-0.02975203577425457	0.4923082893905735	-0.6421116290549692	1.806480660629083	1.806480660629078	-0.06137760645310439	-0.0008967437450487405	0.4967589702387723	0.1187412998984525	-0.219756325306406	0.01025622509005089	0.03841690395214952	-0.3162979297892734	-0.004029183627606939	-0.01441800858633872	0.263301906680897	-4.409276385260057	-46.09259847568682	-13.81998378633651	2.040118532659207	-3.28001262020025	-666.263988057029	58.21725788922826	0.4188249447538451	0.5805335695646426	-0.05532944119166634	-1.901445460782404	0.2292477093667906	-0.4212322353315802	1.926419771763979	-2.119921553767178	-2.119921553767197	0.2982141500864415	0.05549722490583142	-0.6901540620253928	0.2116856514469466	-2.703339830239844e-08	4.561021750737384e-08	1.198355968463568e-06	2.074826216940455e-07	-1.600787313079412e-07	-7.332380420709063e-08	8.458943163972975e-07
